<svg width="1024" height="1024" viewBox="0 0 1024 1024" fill="none" xmlns="http://www.w3.org/2000/svg">
<circle cx="512" cy="512" r="490" fill="black" fill-opacity="0.1"/>
<circle cx="512" cy="512" r="478" fill="url(#paint0_linear_709_6132)"/>
<circle cx="512" cy="512" r="440" fill="url(#paint1_radial_709_6132)" fill-opacity="0.7"/>
<mask id="mask0_709_6132" style="mask-type:alpha" maskUnits="userSpaceOnUse" x="72" y="72" width="880" height="880">
<path d="M952 512C952 755.005 755.005 952 512 952C268.995 952 72 755.005 72 512C72 426.642 96.306 346.961 138.374 279.5C143.26 271.665 148.386 263.995 153.74 256.5C162.5 232.5 231.649 167.761 282 136.827C348.926 95.7105 427.694 72 512 72C641.527 72 757.982 127.969 838.5 217.041C856.765 237.246 873.18 259.155 887.48 282.5C928.407 349.318 952 427.904 952 512Z" fill="black"/>
<path d="M153.74 256.5C174.5 235.5 193 217 213.214 189C213.214 189 208.74 186.93 205 185.5C203.313 184.855 198.272 183.675 196 183.5C189.5 183 184.846 184.261 180.5 186C178 187 173.393 189.817 170.5 193C165.5 198.5 162.412 205.5 160.5 212C158 220.5 156.5 229.5 155.5 236C154.962 239.5 153.74 256.5 153.74 256.5Z" fill="black"/>
<path d="M848 214.5C845.5 215 838.5 217.041 838.5 217.041C856.765 237.246 873.18 259.155 887.48 282.5C887.48 282.5 886.5 281 886 271C885.925 269.502 883.952 253.909 883 248.5C881.743 241.364 879.5 234.5 878 230.5C876.566 226.677 873.452 222 872 220.5C868.386 216.768 865.265 215.191 862.5 214.5C856.5 213 852.848 213.53 848 214.5Z" fill="black"/>
</mask>
<g mask="url(#mask0_709_6132)">
<path d="M336.822 963.419L388.5 979.469L473.5 992.008L539 996L585 992.008L632.747 979.469L637.763 957.4L632.747 938.34L637.763 933.325L620.208 909.751L606.164 869.626L603.154 828.497L640.27 821.475L656.822 802.416L677.386 776.334L722.527 744.735L736.07 714.641L730.051 696.083L760.145 652.447L835.882 568.685L847.919 513.513L871.493 422.227L881.023 326.93V267.243L869.988 226.115L860.458 217.588L838.891 221.099L800.772 239.657L723.029 294.829L661.838 345.488L608.17 397.149L562.026 432.76L533.938 443.795L498.327 432.76L461.712 402.666L374.44 316.898L290.176 247.18L211.932 192.008L193.875 188.497L174.816 192.008L163.781 213.074L156.258 262.227L161.273 394.641L179.33 471.883L192.371 517.525V538.09L204.91 567.682L269.11 629.375L307.23 683.043L313.75 710.629L385.976 764.798L413.562 789.876V839.03L392.496 869.626L360.897 899.218L356.885 909.751V925.801L336.822 963.419Z" fill="#FFF0D7"/>
<path d="M609.5 844V825H555L472 797.5L418 784V825L407 844L366 891L346.5 927.5L329.5 964C329.5 964 363.448 961.647 385 958.5C416.227 953.941 433.749 950.488 464 941.5C493.027 932.876 510.871 930.128 536.5 914C554.444 902.708 562.842 893.822 578 879C591.148 866.144 609.5 844 609.5 844Z" fill="black" fill-opacity="0.1"/>
<path d="M349.5 683L352 694.5L361.5 691L365 672L405 565.5L389 448.5L365 391L329.5 337.5L243.5 247L204 214L191 210L186.5 219.5L196.5 275.5L224.5 412.5L265 526L274 546.5C274 546.5 292.853 573.57 305.5 590.5C313.751 601.545 319.943 606.657 327 618.5C333.171 628.857 335.825 635.19 340 646.5C345.101 660.318 349.5 683 349.5 683Z" fill="black" fill-opacity="0.4"/>
<path d="M387.982 584.735L382.465 602.29L409.048 566.177L422.59 534.077L415.067 493.45C415.067 493.45 411.529 508.313 406.54 516.522C403.997 520.707 399.017 526.554 399.017 526.554L396.509 540.598L387.982 584.735Z" fill="#F59C4F"/>
<path d="M519.894 765.801C519.894 765.801 504.421 753.045 493.311 746.742C475.903 736.865 463.531 737.132 445.161 729.187C426.427 721.085 417.239 713.736 398.515 705.613C388.271 701.169 382.964 696.806 371.932 695.08C364.191 693.87 351.869 695.08 351.869 695.08L355.882 670.002L367.418 637.4L385.976 590.253L398.013 572.196C398.013 572.196 404.601 563.452 407.543 557.149C410.582 550.638 413.06 539.595 413.06 539.595L415.067 517.526V494.955L413.06 466.867L408.546 446.303C408.546 446.303 399.13 422.459 391.994 407.682C386.508 396.321 376.947 379.093 376.947 379.093C376.947 379.093 360.548 356.155 349.361 341.977C311.862 294.45 242.026 230.127 242.026 230.127L204.408 194.516L255.568 223.607L345.85 310.88L384.972 348.497L428.609 393.137L462.715 426.24C462.715 426.24 478.879 447.343 493.813 448.811C501.728 449.589 513.875 445.3 513.875 445.3C513.875 445.3 543.051 448.514 560.521 443.294C570.431 440.332 575.714 437.558 584.596 432.259C597.024 424.845 613.186 408.685 613.186 408.685L641.775 382.102L666.853 359.03L694.941 334.453C694.941 334.453 713.179 319.043 725.035 309.375C745.685 292.536 757.482 283.357 778.703 267.243C786.503 261.321 790.629 257.647 798.766 252.196C806.357 247.112 810.526 243.975 818.828 240.159C823.224 238.138 830.364 235.645 830.364 235.645C830.364 235.645 836.071 233.58 839.894 233.137C843.007 232.776 844.803 232.805 847.919 233.137C850.097 233.368 853.436 234.14 853.436 234.14L741.587 331.444C741.587 331.444 727.424 341.953 715.505 352.008C705.764 360.227 698.772 366.539 690.929 376.585C680.074 390.488 678.343 392.71 670.866 408.685C666.471 418.074 659.33 433.764 659.33 433.764C659.33 433.764 653.531 454.449 652.809 466.867C652.196 477.427 651.704 483.085 653.813 493.45C655.705 502.753 660.333 517.526 660.333 517.526L667.857 539.595L699.455 607.306L701.963 618.341L704.471 625.864L710.991 655.958L712.998 680.033L696.446 702.102L636.258 680.033L628.734 734.704L616.697 731.193L607.167 725.174L601.65 704.109V666.491L609.675 638.905L632.245 612.322C632.245 612.322 640.842 606.439 643.781 600.786C646.369 595.809 646.791 586.742 646.791 586.742C646.791 586.742 648.086 577.727 646.791 572.196C644.944 564.312 640.644 561.098 635.756 554.642C630.984 548.339 622.214 539.595 622.214 539.595C622.214 539.595 617.217 533.763 613.687 535.08C611.478 535.905 610.475 537.376 609.675 539.595C608.243 543.564 611.433 545.095 612.684 549.124C614.746 555.767 616.697 567.181 616.697 567.181L609.675 554.642L596.132 539.595C596.132 539.595 587.15 526.07 578.076 523.043C573.95 521.667 567.041 521.538 567.041 521.538C567.041 521.538 576.505 527.99 581.085 533.576C586.032 539.608 588.343 543.668 590.615 551.131C593.188 559.581 592.12 573.701 592.12 573.701L585.098 553.137C585.098 553.137 578.444 542.438 572.559 537.087C563.872 529.188 545.976 523.043 545.976 523.043C545.976 523.043 537.262 520.885 532.433 523.043C526.959 525.489 522.904 535.08 522.904 535.08C522.904 535.08 518.851 546.844 518.891 554.642C518.93 562.248 519.496 566.901 522.904 573.701C526.937 581.751 532.188 584.312 538.954 590.253C545.047 595.603 555.505 602.792 555.505 602.792L574.063 626.366L581.587 645.927L583.593 667.996L578.076 699.093L575.568 746.742H561.023C561.023 746.742 551.812 746.058 545.976 746.742C539.559 747.494 535.455 747.413 529.925 750.754C526.834 752.622 524.931 753.784 522.904 756.773C520.818 759.849 519.894 765.801 519.894 765.801Z" fill="#FFCA72"/>
<path d="M442.151 693.576L438.64 672.51L437.637 671.507L445.662 647.933H464.722L477.261 661.475L473.248 687.055L454.691 699.093L442.151 693.576Z" fill="white"/>
<path d="M856.5 242.5L845.5 239L788 281L746 322L703.5 372.5L672.5 426L662 489L669 537.5L690.5 571L716.5 616L746 567L802.5 455.5L841 297.5L856.5 242.5Z" fill="black" fill-opacity="0.4"/>
<path d="M548.985 665.989C545.62 669.916 538.452 674.014 538.452 674.014L498.327 648.936C498.327 648.936 490.525 639.173 480.772 637.4C475.255 636.397 456.195 634.892 456.195 634.892C456.195 634.892 446.927 634.579 439.643 636.397C432.97 638.062 427.048 640.065 420.584 642.416C415.067 644.422 407.011 648.958 400.02 653.952C392.998 658.967 387.48 664.986 383.969 669.5C380.211 674.333 369.424 688.058 369.424 688.058C369.424 688.058 371.862 676.747 374.44 670.503C377.888 662.149 380.035 659.665 385.474 652.447C389.979 646.47 392.095 645.072 397.512 639.908C405.482 632.309 406.788 630.788 416.07 624.861C427.22 617.74 433.951 613.973 446.665 610.315C458.62 606.876 465.83 606.658 478.264 606.303C490.233 605.961 497.197 605.598 508.86 608.309C520.41 610.994 527.277 612.983 536.948 619.845C543.387 624.415 547.625 627.005 551.493 633.889C554.96 640.06 556.855 644.416 556.007 651.444C555.251 657.706 553.089 661.199 548.985 665.989Z" fill="#FFECCD"/>
<path d="M572.057 726.178C568.309 731.676 557.512 736.209 557.512 736.209L553.499 722.667L536.947 688.56L533.938 669.5C533.938 669.5 548.088 663.039 552.496 654.955C554.75 650.821 556.007 643.419 556.007 643.419C556.007 643.419 555.925 640.36 556.007 638.403C556.19 634.058 557.206 631.707 557.512 627.369C557.842 622.679 557.874 620.018 557.512 615.331C557.129 610.387 555.505 602.792 555.505 602.792L559.518 606.303L563.53 610.316L568.045 615.833C568.045 615.833 570.85 619.77 572.559 622.353C573.967 624.483 576.07 627.87 576.07 627.87C576.07 627.87 578.743 633.591 580.082 637.4C581.233 640.675 581.905 642.524 582.59 645.927C583.367 649.786 583.593 655.958 583.593 655.958C583.593 655.958 584.362 665.483 583.593 671.507C582.878 677.115 582.19 680.006 581.085 685.551C579.656 692.723 578.577 702.102 578.076 705.613C577.574 709.124 578.076 708.121 576.07 715.645C575.054 719.453 574.278 722.921 572.057 726.178Z" fill="#F59C4F"/>
<path d="M632.245 621.852C631.613 618.184 632.245 612.322 632.245 612.322C632.245 612.322 627.225 615.827 624.22 618.341C621.137 620.919 619.357 622.351 616.697 625.363C612.956 629.597 611.259 632.378 608.672 637.4C605.805 642.964 604.769 646.4 603.154 652.447C601.767 657.644 601.392 660.663 600.646 665.989C599.557 673.771 598.996 678.197 599.142 686.052C599.259 692.347 599.9 695.851 600.646 702.102C601.445 708.786 600.778 712.858 603.154 719.156C604.733 723.339 605.429 726.109 608.672 729.187C611.28 731.662 613.305 732.508 616.697 733.701C620.068 734.887 625.725 735.206 625.725 735.206H632.245L638.264 684.046C638.264 684.046 633.905 680.568 632.245 677.526C630.055 673.511 630.661 670.543 630.239 665.989C629.751 660.723 629.806 657.718 630.239 652.447C630.645 647.505 630.812 644.656 632.245 639.908C633.286 636.46 635.621 634.98 635.756 631.381C635.905 627.418 632.919 625.76 632.245 621.852Z" fill="#F59C4F"/>
<path d="M672.872 578.215C672.584 572.902 671.368 564.673 671.368 564.673L680.396 570.19L689.424 590.253L702.966 620.848L709.487 651.444C709.487 651.444 705.378 646.658 702.966 643.419C700.014 639.453 699.268 636.545 695.944 632.886C692.859 629.489 690.624 628.067 686.916 625.363C683.712 623.025 682.124 621.18 678.39 619.845C674.315 618.389 671.679 619.001 667.355 618.842C664.419 618.734 659.832 618.842 659.832 618.842C659.832 618.842 663.818 614.166 665.85 610.817C667.987 607.297 668.981 605.166 670.364 601.287C671.721 597.484 672.322 595.256 672.872 591.256C673.566 586.211 673.148 583.3 672.872 578.215Z" fill="#F59C4F"/>
<path d="M664.346 520.535C664.346 520.535 656.746 504.921 651.305 508.999C648.568 511.05 648.614 513.703 647.794 517.024C644.536 530.212 664.346 547.619 664.346 547.619L695.443 598.278L710.991 652.948V705.111L704.973 711.632V720.158L700.96 729.688L690.929 739.72L677.386 751.256L666.854 764.798L661.336 774.829L670.866 771.82L710.991 758.779L735.568 714.14L733.06 705.111L734.565 693.074L772.684 624.359L760.647 628.372L751.117 632.886L741.086 638.403C741.086 638.403 737.998 641.069 735.568 641.412C734.599 641.55 734 641.689 733.06 641.412C731.466 640.943 730.573 639.981 730.051 638.403C729.331 636.226 732.057 632.886 732.057 632.886L741.086 624.359C741.086 624.359 745.203 621.949 745.6 619.343C745.808 617.974 746.094 616.795 745.098 615.832C743.971 614.744 742.615 615.491 741.086 615.832C737.83 616.56 734.565 621.35 734.565 621.35C734.565 621.35 731.437 625.338 728.546 625.864C727.39 626.074 726.64 626.269 725.537 625.864C724.618 625.526 724.066 625.179 723.531 624.359C722.674 623.047 723.531 620.347 723.531 620.347L725.537 612.823L730.051 602.792L735.568 593.262L741.086 582.729L730.051 578.716L725.537 585.237L720.02 596.773C720.02 596.773 719.442 599.61 718.013 600.284C716.951 600.785 716.094 600.724 715.004 600.284C713.442 599.653 713.454 598.159 712.496 596.773C707.856 590.056 701.963 578.716 701.963 578.716L685.913 553.137L675.882 540.597L664.346 520.535Z" fill="#EBC2AA"/>
<path d="M656.822 758.278C654.282 762.095 652.81 769.312 652.81 769.312L642.778 752.76L637.261 741.726L644.283 731.695H666.352L687.418 717.651L701.462 688.56L714.001 678.027L712.496 703.105L707.982 717.651L701.462 728.685C701.462 728.685 691.781 735.264 685.411 739.218C680.189 742.461 677.215 744.208 671.869 747.243C667.981 749.451 665.248 749.87 661.838 752.76C659.616 754.643 658.435 755.854 656.822 758.278Z" fill="#F59C4F"/>
<path d="M528.421 700.096L507.355 704.61H477.261L463.217 712.133L477.261 723.669L507.355 727.682L533.436 716.647L528.421 700.096Z" fill="white"/>
<path d="M684.408 692.573L670.365 676.523V664.485L687.919 652.447L698.452 660.974V683.043L684.408 692.573Z" fill="white"/>
<path d="M521.9 783.478L532.935 790.88L525.411 787.426L519.894 783.972L514.377 779.531L506.853 774.103L499.831 770.156L488.797 765.221L477.261 760.78L463.217 755.846L449.173 749.925L437.637 744.497L425.599 737.589L413.06 730.187L400.02 722.786L386.979 714.398L375.944 707.489L367.418 703.049L361.399 699.595L374.44 703.049L386.979 710.45L403.531 721.306L426.101 734.135L443.656 743.017L461.211 751.405L485.788 760.78L506.853 771.636L521.9 783.478Z" fill="black"/>
<path d="M569.048 778.842L571.054 779.845C571.608 780.122 572.463 781.011 573.06 780.848C573.595 780.703 574.455 780.237 574.064 779.845C573.562 779.344 572.994 779.081 572.308 778.591C571.623 778.102 571.286 777.752 570.553 777.337C569.634 776.819 569.024 776.726 568.045 776.334C567.065 775.943 566.526 775.696 565.537 775.331C564.375 774.902 563.751 774.521 562.527 774.328C561.367 774.145 560.685 773.685 559.518 773.826C558.315 773.972 556.275 773.892 556.509 775.08C556.656 775.831 557.75 776.334 558.515 776.334C559.518 776.334 559.862 776.151 561.023 776.334C562.246 776.528 563.351 776.97 564.534 777.338C565.895 777.761 566.226 777.794 567.543 778.341C568.352 778.676 569.048 778.842 569.048 778.842Z" fill="black"/>
<path d="M559.017 781.35L564.032 782.855L566.038 783.858L567.042 785.363L565.537 786.366L562.026 785.864L557.01 785.363H550.991L545.474 786.366L541.462 787.369H538.452L539.455 785.363L545.976 782.855L552.496 781.35H559.017Z" fill="black"/>
<path fill-rule="evenodd" clip-rule="evenodd" d="M184.32 184.751C159.785 192.152 152.438 221.437 152.306 312.364C152.201 385.036 156.345 412.726 176.685 475.243C185.658 502.823 191.374 529.027 189.054 531.949C186.774 534.821 191.783 553.522 198.866 568.573C205.156 581.946 220.195 598.002 252.472 625.808C282.953 652.07 310.236 688.068 303.689 693.39C291.775 703.083 336.898 751.256 380.174 775.049C403.123 787.665 405.497 790.55 408.446 809.389C412.172 833.206 401.829 846.88 372.26 877.149C343.586 906.503 321.167 932.442 337.324 923.795C344.345 920.037 337.829 931.591 325 952.248L343.5 959.5C344 959 344.308 958.394 344.587 957.838C344.794 957.427 345.001 957.015 345.208 956.602C355.965 935.152 368.139 913.335 372.26 908.123C380.888 897.206 380.14 896.495 368.066 904.152C354.833 912.545 358.983 906.681 378.376 889.583C415.124 857.187 427.74 831.903 420.699 804.758C417.863 793.825 418.947 793.558 433.13 801.687C443.617 807.698 460.492 820.424 472.968 831.731C478.92 837.127 481.604 839.56 481.807 839.367C481.975 839.209 480.472 837.283 477.735 833.775L477.732 833.772L477.73 833.77C472.339 826.859 467.482 822.28 447.967 805.704L447.966 805.704C445.351 803.483 444.078 802.401 444.269 801.974C444.45 801.568 445.95 801.751 448.873 802.109C469.561 804.637 489.715 809.724 522.632 820.727C555.716 831.785 582.728 838.137 586.722 835.796C590.777 833.422 587.108 838.418 580.89 843.739C570.923 852.273 562.932 863.285 570.89 857.525C573.866 855.371 580.602 849.47 585.86 844.412C597.643 833.072 601.054 832.436 598.751 842.01C592.207 869.224 599.976 894.145 624.009 923.013C628.112 927.942 631.102 932.345 630.653 932.794C628.483 934.965 604.617 920.608 593.939 910.708C586.911 904.192 583.509 901.813 585.76 904.988C591.358 912.879 609.115 929.608 621.156 938.331C637.844 950.419 636.097 953.607 617.079 945.765C609.828 942.774 603.57 940.328 603.171 940.328C602.774 940.328 608.14 945.834 615.094 952.561C624.443 961.604 630.453 971.43 630.388 975.304L644.012 971.65C643.738 964.761 642.422 956.897 639.937 949.908C638.44 945.7 637.768 943.811 638.394 943.148C638.904 942.609 640.275 942.883 642.763 943.38C649.892 944.806 649.716 944.25 633.415 914.01C615.953 881.618 612.655 871.181 614.161 853.114C615.681 834.87 616.093 833.991 623.78 832.548C634.337 830.567 648.736 823.389 656.842 816.065L664.095 807.975C664.095 807.975 667.321 801.584 669.635 797.627C670.32 796.457 670.882 795.398 671.411 794.402C672.769 791.844 673.904 789.706 676.312 787.188C680.289 783.029 688.665 779.157 688.665 779.157C689.281 778.806 689.911 778.413 690.64 777.956L690.644 777.954L690.645 777.953L690.647 777.952L690.65 777.95L690.655 777.947C692.068 777.064 693.855 775.946 696.64 774.458C714.265 765.042 726.63 753.416 733.189 740.094C736.33 733.711 740.449 727.089 742.341 725.376C745.477 722.54 745.54 721.891 743.048 718.09C741.546 715.794 740.315 712.525 740.315 710.825C740.315 709.123 739.184 706.445 737.802 704.871C731.843 698.088 800.942 612.306 812.371 612.301L828.268 597.501C840.807 583.621 852.008 551.125 845.614 547.172C842.7 545.372 847.246 525.325 856.342 499.874C878.313 438.392 892.021 328.818 885.515 266.683C879.855 212.633 865.538 202.834 823.255 224.071C770.371 250.632 688.402 311.969 629.41 369.128C581.757 415.296 578.716 417.757 554.054 430.084C521.191 446.509 503.926 437.074 424.974 359.55C347.377 283.353 308.327 250.541 244.043 207.523C211.438 185.702 198.068 180.604 184.32 184.751ZM606.417 980.649L610.5 979.884C607.487 973.655 604.361 968.031 602.352 965.7C596.239 958.607 596.266 958.917 603.02 972.949C604.213 975.428 605.346 977.995 606.417 980.649ZM620.207 977.76L626.331 976.289C625.718 976.001 625.032 975.622 624.27 975.146L624.264 975.142C622.09 973.785 620.874 973.026 620.31 973.361C619.77 973.682 619.825 975.004 620.207 977.76ZM223.198 206.452C275.441 239.064 343.314 295.196 411.435 362.13C484.65 434.07 489.772 437.886 537.109 455.767L537.128 455.774C557.143 463.333 565.671 466.554 565.976 465.907C566.201 465.427 561.895 462.816 554.393 458.266L554.391 458.265L554.387 458.263L554.38 458.259C539.209 449.057 539.392 446.549 554.721 453.568C584.899 467.383 638.583 515.31 659.702 547.292C666.529 557.629 674.463 569.558 677.338 573.798C704.685 614.176 721.388 697.825 705.84 716.557C704.74 717.884 704.6 719.341 705.521 719.91C710.409 722.931 715.601 701.02 715.559 677.544C715.481 634.44 700.796 591.084 673.148 552.339C671.727 550.347 670.543 548.669 669.542 547.249C666.937 543.556 665.566 541.611 664.463 540.455C663.907 539.871 663.322 539.112 662.689 538.291L662.688 538.289L662.686 538.287L662.685 538.286L662.685 538.285C661.861 537.215 660.957 536.042 659.932 535.018C659.556 534.641 658.155 533.092 656.486 531.247L656.478 531.238L656.47 531.23L656.463 531.221L656.456 531.214L656.454 531.211L656.452 531.21L656.449 531.206C654.111 528.621 651.26 525.469 649.965 524.144L646.529 520.319C644.528 518.707 641.171 515.924 637.92 512.624C635.859 510.532 634.129 508.599 632.906 507.06L626.366 500.506C623.097 498.164 618.262 493.979 613.006 488.852C609.409 485.342 606.331 482.232 604.132 479.908L596.502 474.306L596.188 474.045C595.941 473.776 595.586 473.53 595.191 473.257C594.638 472.873 594.005 472.434 593.479 471.8C592.217 470.28 586.034 465.254 579.74 460.633C576.108 457.965 574.724 456.619 573.67 455.594C572.898 454.843 572.303 454.264 571.13 453.464C569.556 452.391 566.545 451.007 564.224 449.941L564.22 449.939C563.377 449.552 562.626 449.207 562.068 448.933C559.35 448.027 553.648 445.103 553.648 443.756C553.648 443.16 556.466 441.652 559.913 440.407C571.019 436.391 588.25 422.136 622.516 388.615C699.212 313.586 827.045 220.843 853.762 220.843C886.854 220.843 885.814 359.1 851.772 485.439C847.341 501.886 842.877 521.276 841.853 528.527C836.889 563.698 824.946 581.975 789.998 607.891C770.028 622.7 768.076 624.637 755.196 642.439C748.947 651.075 726.746 672.714 730.335 666.67C733.151 661.929 744.322 645.943 746.899 642.967C752.769 636.19 748.666 637.604 741.009 644.998C725.175 660.285 717.933 683.62 732.604 672.081C738.784 667.221 739.761 668.77 735.292 676.346C724.264 695.036 716.69 714.236 720.855 712.943C734.166 708.813 734.226 708.862 727.482 718.272C717.969 731.545 704.095 743.24 687.795 751.719C679.648 755.957 673.293 759.734 673.671 760.112C674.538 760.979 701.476 750.857 708.147 747.158C717.368 742.044 713.232 746.424 701.961 753.709C695.818 757.68 683.166 763.371 673.849 766.356L672.954 766.643L672.255 766.867L670.831 767.324L670.471 767.44L670.461 767.443L670.382 767.468C659.29 771.032 656.228 772.016 655.408 771.066C655.096 770.703 655.109 770.06 655.127 769.171L655.129 769.091L655.132 768.948L655.133 768.883C655.135 768.742 655.137 768.595 655.137 768.443C655.137 766.606 653.517 760.393 651.536 754.637C651.34 754.068 650.99 753.345 650.591 752.52L650.59 752.518C649.98 751.258 649.256 749.763 648.794 748.224C648.555 747.427 647.607 745.677 646.075 743.693C645.759 743.282 645.499 742.858 645.232 742.422C644.944 741.951 644.648 741.468 644.263 740.974C644.229 740.931 644.196 740.889 644.162 740.847C644.134 740.811 644.105 740.777 644.077 740.742L644.037 740.694L643.988 740.634L643.946 740.584L643.882 740.508L643.763 740.368L643.762 740.367C643.05 739.529 642.451 738.824 642.451 737.35C642.451 735.698 643.45 734.862 644.263 734.631C645.441 734.297 650.606 735.537 650.606 735.537C650.606 735.537 651.222 736.148 656.871 736.01C691.214 735.171 717.801 690.069 703.129 657.534C690.076 628.588 638.911 652.177 630.861 690.851C623.438 726.51 626.599 742.348 645.557 764.496C661.603 783.243 658.943 805.98 639.604 815.34C625.085 822.369 612.415 816.265 622.528 807.113C624.529 805.302 625.955 802.71 625.7 801.355C625.444 799.997 628.496 797.049 632.483 794.802C651.665 783.991 643.694 768.159 619.07 768.159C593.459 768.159 592.045 783.812 616.346 798.308C619.489 800.184 619.232 800.532 613.454 802.223C609.965 803.243 607.931 804.833 609.675 804.924C617.428 805.322 610.667 817.582 601.17 820.241C587.159 824.163 571.811 821.647 534.619 809.334C514.683 802.734 486.547 794.501 472.094 791.039C460.73 788.318 449.494 785.052 438.57 781.341L438.64 781.35H464.22L480.27 781.852L492.308 783.356L504.847 785.864L521.9 791.883L527.919 794.892L531.43 796.898L534.44 798.905L536.446 800.409H537.951L538.452 799.406L535.443 796.898L532.935 794.892L527.919 791.883L522.402 789.375L511.368 785.362L499.33 781.35L486.791 779.344L474.753 778.341H450.678L437.136 777.337L421.043 774.899C380.669 758.912 346.361 737.139 328.493 715.067C319.926 704.485 318.327 701.124 324.564 706.803C330.026 711.778 350.793 724.834 356.853 727.103C358.76 727.815 353.051 721.552 344.167 713.183C335.283 704.813 323.364 691.497 317.679 683.591C300.975 660.359 301.839 657.663 320.689 674.195C325.277 678.218 327.522 680.187 327.795 679.944C328.056 679.712 326.505 677.448 323.469 673.015L323.467 673.013C312.896 657.576 272.886 618.086 250.529 601.023C213.937 573.093 202.336 554.53 192.836 508.693C189.875 494.409 184.672 472.119 181.272 459.161C165.918 400.615 161.358 365.764 161.358 306.927C161.358 195.661 173.726 175.57 223.198 206.452ZM186.292 208.61C165.973 230.919 165.793 355.343 185.975 429.258C206.532 504.552 219.782 532.567 254.543 574.242C264.105 585.705 275.169 600.793 279.129 607.77C285.579 619.128 286.393 619.94 286.902 615.516C288.651 600.338 279.196 580.932 257.822 555.828C197.595 485.09 167.761 369.564 180.417 256.08C183.208 231.041 184.53 232.007 183.039 257.995C179.953 311.754 191.299 395.946 206.876 434.878C207.972 437.615 209.088 440.613 210.237 443.696C213.521 452.512 218.789 465.81 231.058 488.158C240.119 504.664 249.181 516.249 260.055 529.841C265.172 535.641 269.648 540.542 273.965 545.269L273.967 545.271L273.967 545.272C281.115 553.099 287.827 560.45 296.301 570.618C302.875 576.805 309.051 583.328 314.071 588.631L314.073 588.633L314.074 588.634C320.815 595.755 325.47 600.672 326.204 599.615C326.463 599.24 323.842 594.367 320.421 588.007C313.448 575.043 309.893 567.899 307.175 556.119C305.801 550.168 303.55 537.996 306.268 536.184C308.987 534.372 317.142 540.088 321.673 544.339C322.862 545.455 325.048 547.856 327.513 550.563L327.515 550.564L327.516 550.566C334.445 558.175 343.568 568.194 338.89 558.838C336.053 551.928 323.456 532.559 318.955 528.029C317.747 526.519 315.935 524.707 314.022 522.794L314.021 522.793C314.021 522.793 305.966 514.738 305.362 511.718C304.798 508.899 309.234 508.974 310.564 508.996L310.62 508.997L310.704 508.999C310.739 508.999 310.771 508.999 310.799 508.999C312.048 508.999 316.236 509.906 316.236 509.906C316.236 509.906 328.032 512.904 334.359 517.155C337.231 519.084 340.9 523.822 343.612 527.324C346.392 530.914 348.167 533.206 347.045 529.841C345.233 524.404 341.608 518.967 341.608 518.967L332.547 505.375C319.697 491.428 312.129 483.627 305.362 478.19C302.187 475.639 300.431 474.107 299.275 473.099L299.273 473.097L299.271 473.096C297.286 471.363 295.395 469.129 295.395 468.223C295.395 466.941 299.019 466.41 301.738 466.41C302.756 466.351 309.431 467.587 312.611 468.223L312.679 468.236C315.919 468.884 324.907 470.681 336.171 478.19C341.608 481.815 333.453 470.941 330.734 468.223C327.442 464.93 323.485 460.973 319.861 458.255C317.142 455.536 314.848 453.4 312.611 451.912C310.218 450.319 307.175 448.287 306.268 447.381C305.178 446.291 301.889 444.285 300.831 443.756L297.207 441.944L295.395 441.038C295.395 441.038 294.512 440.399 292.438 439.072L292.422 439.063C282.304 432.578 279.99 431.976 279.99 431.976L277.272 430.164C277.272 430.164 275.64 428.218 273.647 426.699C266.061 420.918 300.02 427.304 320.189 435.451C343.254 444.768 330.118 434.945 292.676 414.876C268.554 401.947 255.399 393.438 257.021 391.818C258.213 390.625 296.564 398.063 305.52 401.223C322.153 407.092 317.878 402.202 297.207 391.718C275.057 380.483 241.199 356.692 247.483 356.777C247.918 356.782 257.246 359.223 268.21 362.203C293.923 369.187 294.34 369.079 278.178 359.613C261.954 350.109 251.24 341.14 241.716 329.094C233.573 318.791 232.401 314.088 239.666 320.868C246.517 327.262 258.335 334.393 269.132 338.648C280.98 343.319 280.548 342.425 266.559 333.311C254.442 325.417 236.495 307.897 236.495 303.963C236.495 302.71 239.349 304.452 242.838 307.834C250.835 315.585 250.908 313.892 243.05 302.853C239.679 298.118 231.968 283.368 225.916 270.078C212.531 240.677 207.289 231.565 197.931 221.41C189.299 212.046 192.675 210.703 204.464 218.813C226.355 233.875 293.4 304.988 320.421 338.648C379.798 412.612 405.458 496.467 386.01 590.553C385.464 593.188 386.63 591.847 388.795 587.351C406.288 551.01 413.286 491.419 386.01 422.228C366.513 366.092 340.432 333.858 265.098 259.72C210.082 205.577 196.051 197.896 186.292 208.61ZM842.99 236.342C823.589 243.455 735.98 320.103 708.484 357.525C652.975 425.62 651.433 486.154 666.292 526.423C666.292 526.423 672.084 537.409 674.431 540.455C676.778 543.5 680.767 547.209 680.774 545.892C675.876 535.792 669.638 509.455 669.659 491.855C669.739 424.325 699.406 373.727 785.353 294.535C831.666 251.862 848.216 239.174 852.129 243.346C852.93 244.2 852.555 245.266 851.297 245.715C845.989 247.611 832.382 270.694 821.934 295.535C808.237 328.097 800.852 339.803 784.583 354.741C777.636 361.119 774.534 363.967 774.818 364.358C775.046 364.673 777.48 363.387 781.879 361.063C787.296 358.201 796.064 351.903 801.361 347.07C812.74 336.687 813.175 337.22 804.451 350.86C795.549 364.774 781.545 377.818 765.095 387.512C757.543 391.963 751.68 395.921 752.068 396.307C753.112 397.352 776.057 389.578 787.098 384.436C818.587 369.776 782.323 401.039 747.831 418.29C729.715 427.351 729.786 428.015 748.541 424.854C789.03 418.031 789.18 418.959 750.736 438.434C728.963 449.463 724.026 453.693 736.238 450.859C745.301 448.753 770.544 448.717 768.315 450.812C767.368 451.702 757.822 456.959 747.102 462.496C726.005 473.389 716.614 479.285 723.098 477.563C730.821 475.515 762.328 472.493 763.234 475.133C763.234 477.574 754.464 482.844 747.778 486.861C744.323 488.937 741.424 490.678 740.58 491.522C739.698 492.405 737.298 494.228 734.392 496.437L734.39 496.438L734.389 496.439C727.204 501.899 716.928 509.71 718.832 511.458C719.74 512.289 722.425 510.871 725.592 509.197C727.782 508.04 730.202 506.762 732.424 506.021C735.168 505.106 736.749 505.11 738.429 505.114C738.541 505.114 738.654 505.115 738.768 505.115C740.58 505.115 743.298 505.115 745.111 506.927C746.923 508.739 743.298 514.176 743.298 514.176L723.098 540.455C723.098 540.455 721.134 544.985 723.363 545.892C725.592 546.798 743.298 543.173 743.298 543.173C751.478 541.037 749.542 543.353 745.97 547.628C744.236 549.703 742.116 552.24 740.58 554.953C740.163 555.69 739.582 556.677 738.941 557.767C737.173 560.773 734.942 564.566 734.389 566.087C734.326 566.259 734.113 566.699 733.799 567.345L733.797 567.35L733.796 567.352C731.556 571.967 724.257 587.004 730.612 589.387L734.389 590.293L737.861 589.387C739.19 588.058 741.46 585.766 744.003 583.198L744.004 583.196L744.031 583.169L744.034 583.166L744.036 583.165C750.16 576.98 757.85 569.214 757.797 569.451L792.231 528.527C792.265 527.745 794.834 524.172 798.209 519.477L798.21 519.476L798.213 519.472L798.214 519.47C802.069 514.108 806.973 507.286 810.354 501.49L833.35 448.287C847.114 405.919 854.884 360.436 858.115 303.303C859.581 277.405 859.621 278.005 858.979 315.989C857.133 425.296 834.096 504.76 786.478 566.087C772.86 583.623 766.57 595.667 764.18 608.783C761.826 621.71 762.344 621.768 770.213 609.47C773.865 603.759 783.375 591.374 791.348 581.946C817.739 550.739 824.372 537.793 838.948 489.064C859.25 421.197 866.2 374.822 866.239 306.927C866.281 237.781 863.347 228.875 842.99 236.342ZM409.381 451.912C413.528 471.657 413.831 521.106 411.054 542.604C405.204 562.743 405.537 564.673 414.171 549.59C420.806 532.139 422.814 502.903 413.06 460.848C410.286 448.885 407.129 441.181 409.381 451.912ZM489.492 465.349L489.11 465.653L488.707 465.972C485.483 468.528 483.781 469.877 482.277 471.381L480.772 472.384C480.184 472.861 479.807 473.112 479.514 473.307C479.224 473.501 479.015 473.639 478.766 473.889C478.486 474.169 478.234 474.421 477.997 474.659C477.562 475.094 477.177 475.48 476.759 475.895L475.255 477.4C475.1 477.555 475.018 477.636 474.936 477.718L474.811 477.843L474.648 478.007L474.252 478.403C473.507 479.148 470.744 482.061 469.737 483.419C468.296 485.364 462.843 491.966 458.201 497.463C445.827 512.115 432.903 532.559 434.657 532.559C435.072 532.559 438.94 527.871 443.25 522.139C447.559 516.406 462.407 499.69 476.243 484.986C501.519 458.128 505.161 452.894 490.42 464.612C490.098 464.868 489.789 465.114 489.492 465.349ZM292.676 621.824C292.676 622.247 299.795 629.86 308.498 638.742C324.738 655.318 325.524 655.647 313.9 641.004C308.023 633.599 292.676 619.731 292.676 621.824ZM442.972 641.109C425.243 646.8 411.003 654.446 399.446 664.481C395.046 668.301 389.43 672.803 386.965 674.485C381.013 678.548 387.971 678.731 404.113 674.934L404.29 674.892C409.784 673.6 412.873 672.873 415.376 673.774C418.593 674.932 420.841 678.777 425.979 687.563L426.109 687.785C443.353 717.269 475.409 732.489 526.463 735.431C538.923 736.146 551.04 737.765 553.389 739.023C559.931 742.526 561.568 739.311 558.498 728.986C557.05 724.116 554.969 714.268 553.874 707.101C546.136 656.434 493.255 624.967 442.972 641.109ZM467.402 659.56C473.307 666.576 473.753 676.893 468.399 682.638C464.174 687.174 464.12 687.183 456.224 684.92C450.184 683.187 449.225 684.285 450.252 691.77C450.856 696.165 446.731 691.948 443.976 685.353C434.73 663.226 453.292 642.791 467.402 659.56ZM692.044 663.178C700.66 669.954 697.592 684.793 687.575 684.793C678.336 684.793 675.072 681.939 675.072 673.856C675.072 661.344 683.208 656.226 692.044 663.178ZM526.443 707.423C536.942 720.073 500.308 728.372 477.152 718.591C471.242 716.095 471.302 716.07 483.649 715.903C496.923 715.722 505.778 713.489 514.64 708.085C521.284 704.032 523.526 703.907 526.443 707.423ZM685.06 706.573C688.681 712.432 675.342 724.664 665.331 724.664C656.264 724.664 655.554 721.554 664.095 719.254C668.86 717.971 672.995 715.144 676.145 711.015C681.142 704.464 683.141 703.467 685.06 706.573ZM560.294 740.371C555.373 745.291 566.343 755.928 578.935 758.447C581.93 759.046 583.479 759.355 583.872 758.818C584.293 758.244 583.392 756.702 581.527 753.509L581.527 753.508C576.151 744.303 563.926 736.739 560.294 740.371Z" fill="black"/>
<circle cx="512" cy="512" r="478" fill="url(#paint2_linear_709_6132)" fill-opacity="0.6"/>
<path d="M299.756 163.313H361.191V175.53H313.687V193.504H354.028V204.974H313.687V232H299.756V163.313ZM370.552 205.896C370.552 202.381 371.27 199.026 372.705 195.833C374.141 192.61 376.206 189.769 378.901 187.308C381.597 184.847 384.893 182.884 388.789 181.419C392.715 179.954 397.168 179.222 402.148 179.222C407.1 179.222 411.553 179.969 415.508 181.463C419.492 182.928 422.861 184.949 425.615 187.527C428.398 190.105 430.522 193.138 431.987 196.624C433.481 200.11 434.229 203.846 434.229 207.83C434.229 208.328 434.214 208.87 434.185 209.456C434.185 210.013 434.155 210.525 434.097 210.994H385.054C385.61 212.547 386.504 213.968 387.734 215.257C388.994 216.546 390.562 217.659 392.437 218.597C394.312 219.534 396.479 220.267 398.94 220.794C401.401 221.292 404.126 221.541 407.114 221.541C410.103 221.541 413.076 221.233 416.035 220.618C418.994 219.974 421.821 219.168 424.517 218.201L428.911 228.133C427.212 228.924 425.483 229.627 423.726 230.242C421.997 230.828 420.181 231.326 418.276 231.736C416.401 232.117 414.424 232.41 412.344 232.615C410.293 232.82 408.125 232.923 405.84 232.923C400.01 232.923 394.897 232.22 390.503 230.813C386.108 229.407 382.432 227.488 379.473 225.057C376.514 222.625 374.287 219.769 372.793 216.487C371.299 213.206 370.552 209.676 370.552 205.896ZM420.43 200.843C419.961 199.407 419.229 198.074 418.232 196.844C417.266 195.584 416.05 194.5 414.585 193.592C413.12 192.654 411.421 191.922 409.487 191.395C407.554 190.867 405.43 190.604 403.115 190.604C400.654 190.604 398.413 190.882 396.392 191.438C394.37 191.995 392.598 192.742 391.074 193.68C389.551 194.617 388.276 195.701 387.251 196.932C386.255 198.162 385.522 199.466 385.054 200.843H420.43ZM448.247 180.145H461.255V184.539C464.712 182.576 468.008 181.199 471.143 180.408C474.307 179.617 477.397 179.222 480.415 179.222C484.37 179.222 488.032 179.808 491.401 180.979C494.771 182.122 497.686 183.836 500.146 186.121C502.607 188.406 504.526 191.263 505.903 194.69C507.31 198.089 508.013 202.029 508.013 206.512V232H495.049V208.621C495.049 205.779 494.639 203.245 493.818 201.019C493.027 198.763 491.87 196.873 490.347 195.35C488.853 193.797 487.021 192.625 484.854 191.834C482.715 191.014 480.312 190.604 477.646 190.604C476.24 190.604 474.79 190.75 473.296 191.043C471.831 191.336 470.381 191.761 468.945 192.317C467.539 192.845 466.177 193.519 464.858 194.339C463.54 195.13 462.339 196.038 461.255 197.063V232H448.247V180.145ZM524.009 180.145H537.017V184.539C540.474 182.576 543.77 181.199 546.904 180.408C550.068 179.617 553.159 179.222 556.177 179.222C560.132 179.222 563.794 179.808 567.163 180.979C570.532 182.122 573.447 183.836 575.908 186.121C578.369 188.406 580.288 191.263 581.665 194.69C583.071 198.089 583.774 202.029 583.774 206.512V232H570.811V208.621C570.811 205.779 570.4 203.245 569.58 201.019C568.789 198.763 567.632 196.873 566.108 195.35C564.614 193.797 562.783 192.625 560.615 191.834C558.477 191.014 556.074 190.604 553.408 190.604C552.002 190.604 550.552 190.75 549.058 191.043C547.593 191.336 546.143 191.761 544.707 192.317C543.301 192.845 541.938 193.519 540.62 194.339C539.302 195.13 538.101 196.038 537.017 197.063V232H524.009V180.145ZM597.31 205.896C597.31 202.381 598.027 199.026 599.463 195.833C600.898 192.61 602.964 189.769 605.659 187.308C608.354 184.847 611.65 182.884 615.547 181.419C619.473 179.954 623.926 179.222 628.906 179.222C633.857 179.222 638.311 179.969 642.266 181.463C646.25 182.928 649.619 184.949 652.373 187.527C655.156 190.105 657.28 193.138 658.745 196.624C660.239 200.11 660.986 203.846 660.986 207.83C660.986 208.328 660.972 208.87 660.942 209.456C660.942 210.013 660.913 210.525 660.854 210.994H611.812C612.368 212.547 613.262 213.968 614.492 215.257C615.752 216.546 617.319 217.659 619.194 218.597C621.069 219.534 623.237 220.267 625.698 220.794C628.159 221.292 630.884 221.541 633.872 221.541C636.86 221.541 639.834 221.233 642.793 220.618C645.752 219.974 648.579 219.168 651.274 218.201L655.669 228.133C653.97 228.924 652.241 229.627 650.483 230.242C648.755 230.828 646.938 231.326 645.034 231.736C643.159 232.117 641.182 232.41 639.102 232.615C637.051 232.82 634.883 232.923 632.598 232.923C626.768 232.923 621.655 232.22 617.261 230.813C612.866 229.407 609.189 227.488 606.23 225.057C603.271 222.625 601.045 219.769 599.551 216.487C598.057 213.206 597.31 209.676 597.31 205.896ZM647.188 200.843C646.719 199.407 645.986 198.074 644.99 196.844C644.023 195.584 642.808 194.5 641.343 193.592C639.878 192.654 638.179 191.922 636.245 191.395C634.312 190.867 632.188 190.604 629.873 190.604C627.412 190.604 625.171 190.882 623.149 191.438C621.128 191.995 619.355 192.742 617.832 193.68C616.309 194.617 615.034 195.701 614.009 196.932C613.013 198.162 612.28 199.466 611.812 200.843H647.188ZM671.885 206.204C671.885 202.396 672.573 198.851 673.95 195.569C675.356 192.259 677.393 189.402 680.059 187C682.754 184.568 686.035 182.664 689.902 181.287C693.799 179.91 698.237 179.222 703.218 179.222C705.386 179.222 707.568 179.354 709.766 179.617C711.963 179.881 714.072 180.262 716.094 180.76C718.145 181.229 720.063 181.8 721.851 182.474C723.638 183.118 725.19 183.836 726.509 184.627L720.488 194.427C717.646 193.108 714.951 192.142 712.402 191.526C709.883 190.911 707.319 190.604 704.712 190.604C701.724 190.604 699.043 190.999 696.67 191.79C694.297 192.552 692.275 193.636 690.605 195.042C688.965 196.419 687.705 198.06 686.826 199.964C685.977 201.839 685.552 203.89 685.552 206.116C685.552 208.343 686.006 210.408 686.914 212.312C687.852 214.188 689.155 215.813 690.825 217.19C692.524 218.538 694.561 219.607 696.934 220.398C699.336 221.16 702.002 221.541 704.932 221.541C708.154 221.541 711.187 221.087 714.028 220.179C716.899 219.271 719.565 218.055 722.026 216.531L728.047 226.331C726.494 227.269 724.81 228.147 722.993 228.968C721.177 229.759 719.229 230.447 717.148 231.033C715.098 231.619 712.93 232.073 710.645 232.396C708.389 232.747 706.045 232.923 703.613 232.923C698.662 232.923 694.224 232.249 690.298 230.901C686.372 229.554 683.047 227.693 680.322 225.32C677.598 222.918 675.503 220.091 674.038 216.839C672.603 213.587 671.885 210.042 671.885 206.204Z" fill="white"/>
<path d="M410.18 272.578H399.047V263.906H410.18V249.57H421.742V263.906H432.875V272.578H421.742V310H410.18V272.578ZM440.961 286.797C440.961 283.672 441.599 280.69 442.875 277.852C444.151 274.987 445.987 272.461 448.383 270.273C450.779 268.086 453.708 266.341 457.172 265.039C460.661 263.737 464.62 263.086 469.047 263.086C473.448 263.086 477.406 263.75 480.922 265.078C484.464 266.38 487.458 268.177 489.906 270.469C492.38 272.76 494.268 275.456 495.57 278.555C496.898 281.654 497.562 284.974 497.562 288.516C497.562 288.958 497.549 289.44 497.523 289.961C497.523 290.456 497.497 290.911 497.445 291.328H453.852C454.346 292.708 455.141 293.971 456.234 295.117C457.354 296.263 458.747 297.253 460.414 298.086C462.081 298.919 464.008 299.57 466.195 300.039C468.383 300.482 470.805 300.703 473.461 300.703C476.117 300.703 478.76 300.43 481.391 299.883C484.021 299.31 486.534 298.594 488.93 297.734L492.836 306.562C491.326 307.266 489.789 307.891 488.227 308.438C486.69 308.958 485.076 309.401 483.383 309.766C481.716 310.104 479.958 310.365 478.109 310.547C476.286 310.729 474.359 310.82 472.328 310.82C467.146 310.82 462.602 310.195 458.695 308.945C454.789 307.695 451.521 305.99 448.891 303.828C446.26 301.667 444.281 299.128 442.953 296.211C441.625 293.294 440.961 290.156 440.961 286.797ZM485.297 282.305C484.88 281.029 484.229 279.844 483.344 278.75C482.484 277.63 481.404 276.667 480.102 275.859C478.799 275.026 477.289 274.375 475.57 273.906C473.852 273.438 471.964 273.203 469.906 273.203C467.719 273.203 465.727 273.451 463.93 273.945C462.133 274.44 460.557 275.104 459.203 275.938C457.849 276.771 456.716 277.734 455.805 278.828C454.919 279.922 454.268 281.081 453.852 282.305H485.297ZM507.25 287.07C507.25 283.685 507.862 280.534 509.086 277.617C510.336 274.674 512.146 272.135 514.516 270C516.911 267.839 519.828 266.146 523.266 264.922C526.729 263.698 530.674 263.086 535.102 263.086C537.029 263.086 538.969 263.203 540.922 263.438C542.875 263.672 544.75 264.01 546.547 264.453C548.37 264.87 550.076 265.378 551.664 265.977C553.253 266.549 554.633 267.188 555.805 267.891L550.453 276.602C547.927 275.43 545.531 274.57 543.266 274.023C541.026 273.477 538.747 273.203 536.43 273.203C533.773 273.203 531.391 273.555 529.281 274.258C527.172 274.935 525.375 275.898 523.891 277.148C522.432 278.372 521.312 279.831 520.531 281.523C519.776 283.19 519.398 285.013 519.398 286.992C519.398 288.971 519.802 290.807 520.609 292.5C521.443 294.167 522.602 295.612 524.086 296.836C525.596 298.034 527.406 298.984 529.516 299.688C531.651 300.365 534.021 300.703 536.625 300.703C539.49 300.703 542.185 300.299 544.711 299.492C547.263 298.685 549.633 297.604 551.82 296.25L557.172 304.961C555.792 305.794 554.294 306.576 552.68 307.305C551.065 308.008 549.333 308.62 547.484 309.141C545.661 309.661 543.734 310.065 541.703 310.352C539.698 310.664 537.615 310.82 535.453 310.82C531.052 310.82 527.107 310.221 523.617 309.023C520.128 307.826 517.172 306.172 514.75 304.062C512.328 301.927 510.466 299.414 509.164 296.523C507.888 293.633 507.25 290.482 507.25 287.07ZM569.633 245.234H581.195V267.422C583.617 266.094 586.312 265.039 589.281 264.258C592.276 263.477 595.414 263.086 598.695 263.086C602.497 263.086 605.909 263.646 608.93 264.766C611.977 265.885 614.555 267.5 616.664 269.609C618.773 271.693 620.388 274.232 621.508 277.227C622.654 280.221 623.227 283.594 623.227 287.344V310H611.703V287.812C611.703 285.625 611.352 283.633 610.648 281.836C609.945 280.013 608.917 278.451 607.562 277.148C606.208 275.846 604.555 274.844 602.602 274.141C600.674 273.411 598.487 273.047 596.039 273.047C593.096 273.047 590.362 273.516 587.836 274.453C585.31 275.391 583.096 276.576 581.195 278.008V310H569.633V245.234Z" fill="white"/>
</g>
<defs>
<linearGradient id="paint0_linear_709_6132" x1="512" y1="34" x2="512" y2="990" gradientUnits="userSpaceOnUse">
<stop stop-color="white"/>
<stop offset="1" stop-color="#00FFF0" stop-opacity="0.53"/>
</linearGradient>
<radialGradient id="paint1_radial_709_6132" cx="0" cy="0" r="1" gradientUnits="userSpaceOnUse" gradientTransform="translate(512 134.5) rotate(90) scale(666)">
<stop stop-opacity="0"/>
<stop offset="1"/>
</radialGradient>
<linearGradient id="paint2_linear_709_6132" x1="512" y1="34" x2="512" y2="990" gradientUnits="userSpaceOnUse">
<stop stop-color="#FF00E5"/>
<stop offset="0.9999" stop-color="#2400FF" stop-opacity="0.37"/>
<stop offset="1" stop-color="#70C900" stop-opacity="0.08"/>
</linearGradient>
</defs>
</svg>
